STARTFONT 2.1
COMMENT
COMMENT  Copyright (c) 2008, Your Name Here
COMMENT
COMMENT  License to copy and distribute for both commercial and
COMMENT  non-commercial use is herby granted, provided this notice
COMMENT  is preserved.
COMMENT
COMMENT  yourEmail@your.Domain
COMMENT  http://web.server/YourWebPageIfYouHaveOne/
COMMENT  Whatever else you want to put here
COMMENT
COMMENT  Produced with bdfedit, a tcl/tk font editing program
COMMENT  written by Thomas A. Fine
FONT -xos4-Terminusicons2Mono-Medium-R-Normal--12-120-72-72-M-60-ISO8859-1
SIZE 12 72 72
FONTBOUNDINGBOX 10 12 0 -2
STARTPROPERTIES 11
FOUNDRY "xos4"
FAMILY_NAME "Terminusicons2Mono"
WEIGHT_NAME "Medium"
SLANT "R"
SETWIDTH_NAME "Normal"
SPACING "c"
CHARSET_REGISTRY "ISO-8859"
CHARSET_ENCODING "1"
COPYRIGHT "Copyright (C) 2011 Dimitar Toshkov Zhekov"
FONT_ASCENT  10
FONT_DESCENT 2
ENDPROPERTIES
CHARS 254
STARTCHAR uni25AE
ENCODING 0
SWIDTH 833 0
DWIDTH 10 0
BBX 5 8 0 0
BITMAP
f8
f8
f8
f8
f8
f8
f8
f8
ENDCHAR
STARTCHAR blackdiamond
ENCODING 1
SWIDTH 833 0
DWIDTH 10 0
BBX 5 5 0 2
BITMAP
20
70
f8
70
20
ENDCHAR
STARTCHAR shade
ENCODING 2
SWIDTH 833 0
DWIDTH 10 0
BBX 6 12 0 -2
BITMAP
a8
54
a8
54
a8
54
a8
54
a8
54
a8
54
ENDCHAR
STARTCHAR uni2409
ENCODING 3
SWIDTH 833 0
DWIDTH 10 0
BBX 6 11 0 -1
BITMAP
90
90
f0
90
90
00
7c
10
10
10
10
ENDCHAR
STARTCHAR uni240C
ENCODING 4
SWIDTH 833 0
DWIDTH 10 0
BBX 6 11 0 -1
BITMAP
f0
80
e0
80
80
00
3c
20
38
20
20
ENDCHAR
STARTCHAR uni240D
ENCODING 5
SWIDTH 833 0
DWIDTH 10 0
BBX 6 11 0 -1
BITMAP
60
90
80
90
60
00
38
24
38
28
24
ENDCHAR
STARTCHAR uni240A
ENCODING 6
SWIDTH 833 0
DWIDTH 10 0
BBX 6 11 0 -1
BITMAP
80
80
80
80
f0
00
3c
20
38
20
20
ENDCHAR
STARTCHAR degree
ENCODING 7
SWIDTH 833 0
DWIDTH 10 0
BBX 3 3 1 6
BITMAP
40
a0
40
ENDCHAR
STARTCHAR plusminus
ENCODING 8
SWIDTH 833 0
DWIDTH 10 0
BBX 5 7 0 0
BITMAP
20
20
f8
20
20
00
f8
ENDCHAR
STARTCHAR uni2424
ENCODING 9
SWIDTH 833 0
DWIDTH 10 0
BBX 6 11 0 -1
BITMAP
90
d0
b0
90
90
00
20
20
20
20
3c
ENDCHAR
STARTCHAR uni240B
ENCODING 10
SWIDTH 833 0
DWIDTH 10 0
BBX 6 11 0 -1
BITMAP
88
88
88
50
20
00
7c
10
10
10
10
ENDCHAR
STARTCHAR SF040000
ENCODING 11
SWIDTH 833 0
DWIDTH 10 0
BBX 3 6 0 4
BITMAP
20
20
20
20
20
e0
ENDCHAR
STARTCHAR SF030000
ENCODING 12
SWIDTH 833 0
DWIDTH 10 0
BBX 3 7 0 -2
BITMAP
e0
20
20
20
20
20
20
ENDCHAR
STARTCHAR SF010000
ENCODING 13
SWIDTH 833 0
DWIDTH 10 0
BBX 4 7 2 -2
BITMAP
f0
80
80
80
80
80
80
ENDCHAR
STARTCHAR SF020000
ENCODING 14
SWIDTH 833 0
DWIDTH 10 0
BBX 4 6 2 4
BITMAP
80
80
80
80
80
f0
ENDCHAR
STARTCHAR SF050000
ENCODING 15
SWIDTH 833 0
DWIDTH 10 0
BBX 6 12 0 -2
BITMAP
20
20
20
20
20
fc
20
20
20
20
20
20
ENDCHAR
STARTCHAR uni23BA
ENCODING 16
SWIDTH 833 0
DWIDTH 10 0
BBX 6 1 0 9
BITMAP
fc
ENDCHAR
STARTCHAR uni23BB
ENCODING 17
SWIDTH 833 0
DWIDTH 10 0
BBX 6 1 0 6
BITMAP
fc
ENDCHAR
STARTCHAR SF100000
ENCODING 18
SWIDTH 833 0
DWIDTH 10 0
BBX 6 1 0 4
BITMAP
fc
ENDCHAR
STARTCHAR uni23BC
ENCODING 19
SWIDTH 833 0
DWIDTH 10 0
BBX 6 1 0 1
BITMAP
fc
ENDCHAR
STARTCHAR uni23BD
ENCODING 20
SWIDTH 833 0
DWIDTH 10 0
BBX 6 1 0 -2
BITMAP
fc
ENDCHAR
STARTCHAR SF080000
ENCODING 21
SWIDTH 833 0
DWIDTH 10 0
BBX 4 12 2 -2
BITMAP
80
80
80
80
80
f0
80
80
80
80
80
80
ENDCHAR
STARTCHAR SF090000
ENCODING 22
SWIDTH 833 0
DWIDTH 10 0
BBX 3 12 0 -2
BITMAP
20
20
20
20
20
e0
20
20
20
20
20
20
ENDCHAR
STARTCHAR SF070000
ENCODING 23
SWIDTH 833 0
DWIDTH 10 0
BBX 6 6 0 4
BITMAP
20
20
20
20
20
fc
ENDCHAR
STARTCHAR SF060000
ENCODING 24
SWIDTH 833 0
DWIDTH 10 0
BBX 6 7 0 -2
BITMAP
fc
20
20
20
20
20
20
ENDCHAR
STARTCHAR SF110000
ENCODING 25
SWIDTH 833 0
DWIDTH 10 0
BBX 1 12 2 -2
BITMAP
80
80
80
80
80
80
80
80
80
80
80
80
ENDCHAR
STARTCHAR lessequal
ENCODING 26
SWIDTH 833 0
DWIDTH 10 0
BBX 5 9 0 0
BITMAP
10
20
40
80
40
20
10
00
f8
ENDCHAR
STARTCHAR greaterequal
ENCODING 27
SWIDTH 833 0
DWIDTH 10 0
BBX 5 9 0 0
BITMAP
40
20
10
08
10
20
40
00
f8
ENDCHAR
STARTCHAR pi
ENCODING 28
SWIDTH 833 0
DWIDTH 10 0
BBX 5 6 0 0
BITMAP
f8
88
88
88
88
88
ENDCHAR
STARTCHAR notequal
ENCODING 29
SWIDTH 833 0
DWIDTH 10 0
BBX 5 6 0 1
BITMAP
08
f8
20
40
f8
80
ENDCHAR
STARTCHAR sterling
ENCODING 30
SWIDTH 833 0
DWIDTH 10 0
BBX 5 8 0 0
BITMAP
30
48
40
f0
40
40
48
f8
ENDCHAR
STARTCHAR periodcentered
ENCODING 31
SWIDTH 833 0
DWIDTH 10 0
BBX 1 2 2 3
BITMAP
80
80
ENDCHAR
STARTCHAR space
ENCODING 32
SWIDTH 833 0
DWIDTH 10 0
BBX 0 0 0 0
BITMAP
ENDCHAR
STARTCHAR exclam
ENCODING 33
SWIDTH 833 0
DWIDTH 10 0
BBX 1 8 2 0
BITMAP
80
80
80
80
80
00
80
80
ENDCHAR
STARTCHAR quotedbl
ENCODING 34
SWIDTH 833 0
DWIDTH 10 0
BBX 3 3 1 6
BITMAP
a0
a0
a0
ENDCHAR
STARTCHAR numbersign
ENCODING 35
SWIDTH 833 0
DWIDTH 10 0
BBX 5 8 0 0
BITMAP
50
50
f8
50
50
f8
50
50
ENDCHAR
STARTCHAR dollar
ENCODING 36
SWIDTH 833 0
DWIDTH 10 0
BBX 5 9 0 -1
BITMAP
20
70
a8
a0
70
28
a8
70
20
ENDCHAR
STARTCHAR percent
ENCODING 37
SWIDTH 833 0
DWIDTH 10 0
BBX 6 8 0 0
BITMAP
48
a8
50
10
20
28
54
48
ENDCHAR
STARTCHAR ampersand
ENCODING 38
SWIDTH 833 0
DWIDTH 10 0
BBX 5 8 0 0
BITMAP
20
50
50
20
68
90
90
68
ENDCHAR
STARTCHAR quotesingle
ENCODING 39
SWIDTH 833 0
DWIDTH 10 0
BBX 1 3 2 6
BITMAP
80
80
80
ENDCHAR
STARTCHAR parenleft
ENCODING 40
SWIDTH 833 0
DWIDTH 10 0
BBX 3 8 1 0
BITMAP
20
40
80
80
80
80
40
20
ENDCHAR
STARTCHAR parenright
ENCODING 41
SWIDTH 833 0
DWIDTH 10 0
BBX 3 8 1 0
BITMAP
80
40
20
20
20
20
40
80
ENDCHAR
STARTCHAR asterisk
ENCODING 42
SWIDTH 833 0
DWIDTH 10 0
BBX 5 5 0 1
BITMAP
50
20
f8
20
50
ENDCHAR
STARTCHAR plus
ENCODING 43
SWIDTH 833 0
DWIDTH 10 0
BBX 5 5 0 1
BITMAP
20
20
f8
20
20
ENDCHAR
STARTCHAR comma
ENCODING 44
SWIDTH 833 0
DWIDTH 10 0
BBX 2 3 1 -1
BITMAP
40
40
80
ENDCHAR
STARTCHAR hyphen
ENCODING 45
SWIDTH 833 0
DWIDTH 10 0
BBX 5 1 0 3
BITMAP
f8
ENDCHAR
STARTCHAR period
ENCODING 46
SWIDTH 833 0
DWIDTH 10 0
BBX 1 2 2 0
BITMAP
80
80
ENDCHAR
STARTCHAR slash
ENCODING 47
SWIDTH 833 0
DWIDTH 10 0
BBX 4 8 1 0
BITMAP
10
10
20
20
40
40
80
80
ENDCHAR
STARTCHAR zero
ENCODING 48
SWIDTH 833 0
DWIDTH 10 0
BBX 5 8 0 0
BITMAP
70
88
98
a8
c8
88
88
70
ENDCHAR
STARTCHAR one
ENCODING 49
SWIDTH 833 0
DWIDTH 10 0
BBX 3 8 1 0
BITMAP
40
c0
40
40
40
40
40
e0
ENDCHAR
STARTCHAR two
ENCODING 50
SWIDTH 833 0
DWIDTH 10 0
BBX 5 8 0 0
BITMAP
70
88
88
10
20
40
80
f8
ENDCHAR
STARTCHAR three
ENCODING 51
SWIDTH 833 0
DWIDTH 10 0
BBX 5 8 0 0
BITMAP
70
88
08
30
08
08
88
70
ENDCHAR
STARTCHAR four
ENCODING 52
SWIDTH 833 0
DWIDTH 10 0
BBX 5 8 0 0
BITMAP
08
18
28
48
88
f8
08
08
ENDCHAR
STARTCHAR five
ENCODING 53
SWIDTH 833 0
DWIDTH 10 0
BBX 5 8 0 0
BITMAP
f8
80
80
f0
08
08
88
70
ENDCHAR
STARTCHAR six
ENCODING 54
SWIDTH 833 0
DWIDTH 10 0
BBX 5 8 0 0
BITMAP
70
80
80
f0
88
88
88
70
ENDCHAR
STARTCHAR seven
ENCODING 55
SWIDTH 833 0
DWIDTH 10 0
BBX 5 8 0 0
BITMAP
f8
08
08
10
10
20
20
20
ENDCHAR
STARTCHAR eight
ENCODING 56
SWIDTH 833 0
DWIDTH 10 0
BBX 5 8 0 0
BITMAP
70
88
88
70
88
88
88
70
ENDCHAR
STARTCHAR nine
ENCODING 57
SWIDTH 833 0
DWIDTH 10 0
BBX 5 8 0 0
BITMAP
70
88
88
88
78
08
08
70
ENDCHAR
STARTCHAR colon
ENCODING 58
SWIDTH 833 0
DWIDTH 10 0
BBX 1 6 2 0
BITMAP
80
80
00
00
80
80
ENDCHAR
STARTCHAR semicolon
ENCODING 59
SWIDTH 833 0
DWIDTH 10 0
BBX 2 7 1 -1
BITMAP
40
40
00
00
40
40
80
ENDCHAR
STARTCHAR less
ENCODING 60
SWIDTH 833 0
DWIDTH 10 0
BBX 4 7 1 0
BITMAP
10
20
40
80
40
20
10
ENDCHAR
STARTCHAR equal
ENCODING 61
SWIDTH 833 0
DWIDTH 10 0
BBX 5 4 0 2
BITMAP
f8
00
00
f8
ENDCHAR
STARTCHAR greater
ENCODING 62
SWIDTH 833 0
DWIDTH 10 0
BBX 4 7 1 0
BITMAP
80
40
20
10
20
40
80
ENDCHAR
STARTCHAR question
ENCODING 63
SWIDTH 833 0
DWIDTH 10 0
BBX 5 8 0 0
BITMAP
70
88
88
10
20
00
20
20
ENDCHAR
STARTCHAR at
ENCODING 64
SWIDTH 833 0
DWIDTH 10 0
BBX 5 8 0 0
BITMAP
70
88
98
a8
a8
98
80
78
ENDCHAR
STARTCHAR A
ENCODING 65
SWIDTH 833 0
DWIDTH 10 0
BBX 5 8 0 0
BITMAP
70
88
88
88
f8
88
88
88
ENDCHAR
STARTCHAR B
ENCODING 66
SWIDTH 833 0
DWIDTH 10 0
BBX 5 8 0 0
BITMAP
f0
88
88
f0
88
88
88
f0
ENDCHAR
STARTCHAR C
ENCODING 67
SWIDTH 833 0
DWIDTH 10 0
BBX 5 8 0 0
BITMAP
70
88
80
80
80
80
88
70
ENDCHAR
STARTCHAR D
ENCODING 68
SWIDTH 833 0
DWIDTH 10 0
BBX 5 8 0 0
BITMAP
e0
90
88
88
88
88
90
e0
ENDCHAR
STARTCHAR E
ENCODING 69
SWIDTH 833 0
DWIDTH 10 0
BBX 5 8 0 0
BITMAP
f8
80
80
f0
80
80
80
f8
ENDCHAR
STARTCHAR F
ENCODING 70
SWIDTH 833 0
DWIDTH 10 0
BBX 5 8 0 0
BITMAP
f8
80
80
f0
80
80
80
80
ENDCHAR
STARTCHAR G
ENCODING 71
SWIDTH 833 0
DWIDTH 10 0
BBX 5 8 0 0
BITMAP
70
88
80
80
b8
88
88
70
ENDCHAR
STARTCHAR H
ENCODING 72
SWIDTH 833 0
DWIDTH 10 0
BBX 5 8 0 0
BITMAP
88
88
88
f8
88
88
88
88
ENDCHAR
STARTCHAR I
ENCODING 73
SWIDTH 833 0
DWIDTH 10 0
BBX 3 8 1 0
BITMAP
e0
40
40
40
40
40
40
e0
ENDCHAR
STARTCHAR J
ENCODING 74
SWIDTH 833 0
DWIDTH 10 0
BBX 5 8 0 0
BITMAP
38
10
10
10
10
90
90
60
ENDCHAR
STARTCHAR K
ENCODING 75
SWIDTH 833 0
DWIDTH 10 0
BBX 5 8 0 0
BITMAP
88
90
a0
c0
c0
a0
90
88
ENDCHAR
STARTCHAR L
ENCODING 76
SWIDTH 833 0
DWIDTH 10 0
BBX 5 8 0 0
BITMAP
80
80
80
80
80
80
80
f8
ENDCHAR
STARTCHAR M
ENCODING 77
SWIDTH 833 0
DWIDTH 10 0
BBX 5 8 0 0
BITMAP
88
d8
a8
a8
88
88
88
88
ENDCHAR
STARTCHAR N
ENCODING 78
SWIDTH 833 0
DWIDTH 10 0
BBX 5 8 0 0
BITMAP
88
88
c8
a8
98
88
88
88
ENDCHAR
STARTCHAR O
ENCODING 79
SWIDTH 833 0
DWIDTH 10 0
BBX 5 8 0 0
BITMAP
70
88
88
88
88
88
88
70
ENDCHAR
STARTCHAR P
ENCODING 80
SWIDTH 833 0
DWIDTH 10 0
BBX 5 8 0 0
BITMAP
f0
88
88
88
f0
80
80
80
ENDCHAR
STARTCHAR Q
ENCODING 81
SWIDTH 833 0
DWIDTH 10 0
BBX 5 9 0 -1
BITMAP
70
88
88
88
88
88
a8
70
08
ENDCHAR
STARTCHAR R
ENCODING 82
SWIDTH 833 0
DWIDTH 10 0
BBX 5 8 0 0
BITMAP
f0
88
88
88
f0
a0
90
88
ENDCHAR
STARTCHAR S
ENCODING 83
SWIDTH 833 0
DWIDTH 10 0
BBX 5 8 0 0
BITMAP
70
88
80
70
08
08
88
70
ENDCHAR
STARTCHAR T
ENCODING 84
SWIDTH 833 0
DWIDTH 10 0
BBX 5 8 0 0
BITMAP
f8
20
20
20
20
20
20
20
ENDCHAR
STARTCHAR U
ENCODING 85
SWIDTH 833 0
DWIDTH 10 0
BBX 5 8 0 0
BITMAP
88
88
88
88
88
88
88
70
ENDCHAR
STARTCHAR V
ENCODING 86
SWIDTH 833 0
DWIDTH 10 0
BBX 5 8 0 0
BITMAP
88
88
88
50
50
50
20
20
ENDCHAR
STARTCHAR W
ENCODING 87
SWIDTH 833 0
DWIDTH 10 0
BBX 5 8 0 0
BITMAP
88
88
88
88
a8
a8
d8
88
ENDCHAR
STARTCHAR X
ENCODING 88
SWIDTH 833 0
DWIDTH 10 0
BBX 5 8 0 0
BITMAP
88
88
50
20
20
50
88
88
ENDCHAR
STARTCHAR Y
ENCODING 89
SWIDTH 833 0
DWIDTH 10 0
BBX 5 8 0 0
BITMAP
88
88
50
50
20
20
20
20
ENDCHAR
STARTCHAR Z
ENCODING 90
SWIDTH 833 0
DWIDTH 10 0
BBX 5 8 0 0
BITMAP
f8
08
10
20
40
80
80
f8
ENDCHAR
STARTCHAR bracketleft
ENCODING 91
SWIDTH 833 0
DWIDTH 10 0
BBX 3 8 1 0
BITMAP
e0
80
80
80
80
80
80
e0
ENDCHAR
STARTCHAR backslash
ENCODING 92
SWIDTH 833 0
DWIDTH 10 0
BBX 4 8 1 0
BITMAP
80
80
40
40
20
20
10
10
ENDCHAR
STARTCHAR bracketright
ENCODING 93
SWIDTH 833 0
DWIDTH 10 0
BBX 3 8 1 0
BITMAP
e0
20
20
20
20
20
20
e0
ENDCHAR
STARTCHAR asciicircum
ENCODING 94
SWIDTH 833 0
DWIDTH 10 0
BBX 5 3 0 6
BITMAP
20
50
88
ENDCHAR
STARTCHAR underscore
ENCODING 95
SWIDTH 833 0
DWIDTH 10 0
BBX 5 1 0 -1
BITMAP
f8
ENDCHAR
STARTCHAR grave
ENCODING 96
SWIDTH 833 0
DWIDTH 10 0
BBX 2 2 1 8
BITMAP
80
40
ENDCHAR
STARTCHAR a
ENCODING 97
SWIDTH 833 0
DWIDTH 10 0
BBX 5 6 0 0
BITMAP
70
08
78
88
88
78
ENDCHAR
STARTCHAR b
ENCODING 98
SWIDTH 833 0
DWIDTH 10 0
BBX 5 8 0 0
BITMAP
80
80
f0
88
88
88
88
f0
ENDCHAR
STARTCHAR c
ENCODING 99
SWIDTH 833 0
DWIDTH 10 0
BBX 5 6 0 0
BITMAP
70
88
80
80
88
70
ENDCHAR
STARTCHAR d
ENCODING 100
SWIDTH 833 0
DWIDTH 10 0
BBX 5 8 0 0
BITMAP
08
08
78
88
88
88
88
78
ENDCHAR
STARTCHAR e
ENCODING 101
SWIDTH 833 0
DWIDTH 10 0
BBX 5 6 0 0
BITMAP
70
88
f8
80
88
70
ENDCHAR
STARTCHAR f
ENCODING 102
SWIDTH 833 0
DWIDTH 10 0
BBX 4 8 1 0
BITMAP
30
40
e0
40
40
40
40
40
ENDCHAR
STARTCHAR g
ENCODING 103
SWIDTH 833 0
DWIDTH 10 0
BBX 5 8 0 -2
BITMAP
78
88
88
88
88
78
08
70
ENDCHAR
STARTCHAR h
ENCODING 104
SWIDTH 833 0
DWIDTH 10 0
BBX 5 8 0 0
BITMAP
80
80
f0
88
88
88
88
88
ENDCHAR
STARTCHAR i
ENCODING 105
SWIDTH 833 0
DWIDTH 10 0
BBX 3 9 1 0
BITMAP
40
40
00
c0
40
40
40
40
e0
ENDCHAR
STARTCHAR j
ENCODING 106
SWIDTH 833 0
DWIDTH 10 0
BBX 4 11 1 -2
BITMAP
10
10
00
30
10
10
10
10
10
90
60
ENDCHAR
STARTCHAR k
ENCODING 107
SWIDTH 833 0
DWIDTH 10 0
BBX 4 8 1 0
BITMAP
80
80
90
a0
c0
c0
a0
90
ENDCHAR
STARTCHAR l
ENCODING 108
SWIDTH 833 0
DWIDTH 10 0
BBX 3 8 1 0
BITMAP
c0
40
40
40
40
40
40
e0
ENDCHAR
STARTCHAR m
ENCODING 109
SWIDTH 833 0
DWIDTH 10 0
BBX 5 6 0 0
BITMAP
f0
a8
a8
a8
a8
a8
ENDCHAR
STARTCHAR n
ENCODING 110
SWIDTH 833 0
DWIDTH 10 0
BBX 5 6 0 0
BITMAP
f0
88
88
88
88
88
ENDCHAR
STARTCHAR o
ENCODING 111
SWIDTH 833 0
DWIDTH 10 0
BBX 5 6 0 0
BITMAP
70
88
88
88
88
70
ENDCHAR
STARTCHAR p
ENCODING 112
SWIDTH 833 0
DWIDTH 10 0
BBX 5 8 0 -2
BITMAP
f0
88
88
88
88
f0
80
80
ENDCHAR
STARTCHAR q
ENCODING 113
SWIDTH 833 0
DWIDTH 10 0
BBX 5 8 0 -2
BITMAP
78
88
88
88
88
78
08
08
ENDCHAR
STARTCHAR r
ENCODING 114
SWIDTH 833 0
DWIDTH 10 0
BBX 5 6 0 0
BITMAP
b8
c0
80
80
80
80
ENDCHAR
STARTCHAR s
ENCODING 115
SWIDTH 833 0
DWIDTH 10 0
BBX 5 6 0 0
BITMAP
78
80
70
08
08
f0
ENDCHAR
STARTCHAR t
ENCODING 116
SWIDTH 833 0
DWIDTH 10 0
BBX 4 8 1 0
BITMAP
40
40
e0
40
40
40
40
30
ENDCHAR
STARTCHAR u
ENCODING 117
SWIDTH 833 0
DWIDTH 10 0
BBX 5 6 0 0
BITMAP
88
88
88
88
88
78
ENDCHAR
STARTCHAR v
ENCODING 118
SWIDTH 833 0
DWIDTH 10 0
BBX 5 6 0 0
BITMAP
88
88
50
50
20
20
ENDCHAR
STARTCHAR w
ENCODING 119
SWIDTH 833 0
DWIDTH 10 0
BBX 5 6 0 0
BITMAP
88
88
a8
a8
a8
70
ENDCHAR
STARTCHAR x
ENCODING 120
SWIDTH 833 0
DWIDTH 10 0
BBX 5 6 0 0
BITMAP
88
50
20
20
50
88
ENDCHAR
STARTCHAR y
ENCODING 121
SWIDTH 833 0
DWIDTH 10 0
BBX 5 8 0 -2
BITMAP
88
88
88
88
88
78
08
70
ENDCHAR
STARTCHAR z
ENCODING 122
SWIDTH 833 0
DWIDTH 10 0
BBX 5 6 0 0
BITMAP
f8
10
20
40
80
f8
ENDCHAR
STARTCHAR braceleft
ENCODING 123
SWIDTH 833 0
DWIDTH 10 0
BBX 4 8 1 0
BITMAP
30
40
40
80
40
40
40
30
ENDCHAR
STARTCHAR bar
ENCODING 124
SWIDTH 833 0
DWIDTH 10 0
BBX 1 8 2 0
BITMAP
80
80
80
80
80
80
80
80
ENDCHAR
STARTCHAR braceright
ENCODING 125
SWIDTH 833 0
DWIDTH 10 0
BBX 4 8 1 0
BITMAP
c0
20
20
10
20
20
20
c0
ENDCHAR
STARTCHAR asciitilde
ENCODING 126
SWIDTH 833 0
DWIDTH 10 0
BBX 5 3 0 6
BITMAP
48
a8
90
ENDCHAR
STARTCHAR house
ENCODING 127
SWIDTH 833 0
DWIDTH 10 0
BBX 5 6 0 0
BITMAP
20
50
88
88
88
f8
ENDCHAR
STARTCHAR Euro
ENCODING 128
SWIDTH 833 0
DWIDTH 10 0
BBX 6 7 0 0
BITMAP
38
44
f0
40
f0
44
38
ENDCHAR
STARTCHAR quotesinglbase
ENCODING 130
SWIDTH 833 0
DWIDTH 10 0
BBX 2 3 1 -1
BITMAP
40
40
80
ENDCHAR
STARTCHAR florin
ENCODING 131
SWIDTH 833 0
DWIDTH 10 0
BBX 5 10 0 -2
BITMAP
10
28
20
70
20
20
20
20
a0
40
ENDCHAR
STARTCHAR quotedblbase
ENCODING 132
SWIDTH 833 0
DWIDTH 10 0
BBX 4 3 0 -1
BITMAP
50
50
a0
ENDCHAR
STARTCHAR ellipsis
ENCODING 133
SWIDTH 833 0
DWIDTH 10 0
BBX 5 2 0 0
BITMAP
a8
a8
ENDCHAR
STARTCHAR dagger
ENCODING 134
SWIDTH 833 0
DWIDTH 10 0
BBX 3 8 1 0
BITMAP
40
e0
40
40
40
40
40
40
ENDCHAR
STARTCHAR daggerdbl
ENCODING 135
SWIDTH 833 0
DWIDTH 10 0
BBX 3 8 1 0
BITMAP
40
e0
40
40
40
40
e0
40
ENDCHAR
STARTCHAR circumflex
ENCODING 136
SWIDTH 833 0
DWIDTH 10 0
BBX 3 2 1 8
BITMAP
40
a0
ENDCHAR
STARTCHAR perthousand
ENCODING 137
SWIDTH 833 0
DWIDTH 10 0
BBX 6 8 0 0
BITMAP
44
a8
50
20
40
a8
54
28
ENDCHAR
STARTCHAR Scaron
ENCODING 138
SWIDTH 833 0
DWIDTH 10 0
BBX 5 10 0 0
BITMAP
50
20
70
88
80
70
08
08
88
70
ENDCHAR
STARTCHAR guilsinglleft
ENCODING 139
SWIDTH 833 0
DWIDTH 10 0
BBX 4 7 1 0
BITMAP
10
20
40
80
40
20
10
ENDCHAR
STARTCHAR OE
ENCODING 140
SWIDTH 833 0
DWIDTH 10 0
BBX 6 8 0 0
BITMAP
7c
90
90
9c
90
90
90
7c
ENDCHAR
STARTCHAR Zcaron
ENCODING 142
SWIDTH 833 0
DWIDTH 10 0
BBX 5 10 0 0
BITMAP
50
20
f8
08
10
20
40
80
80
f8
ENDCHAR
STARTCHAR C217
ENCODING 143
SWIDTH 833 0
DWIDTH 10 0
BBX 5 10 3 0
BITMAP
10
30
60
c0
60
30
18
30
60
c0
ENDCHAR
STARTCHAR C220
ENCODING 144
SWIDTH 833 0
DWIDTH 10 0
BBX 6 9 2 0
BITMAP
30
fc
fc
fc
fc
fc
fc
fc
fc
ENDCHAR
STARTCHAR quoteleft
ENCODING 145
SWIDTH 833 0
DWIDTH 10 0
BBX 2 3 2 6
BITMAP
40
80
80
ENDCHAR
STARTCHAR quoteright
ENCODING 146
SWIDTH 833 0
DWIDTH 10 0
BBX 2 3 1 6
BITMAP
40
40
80
ENDCHAR
STARTCHAR quotedblleft
ENCODING 147
SWIDTH 833 0
DWIDTH 10 0
BBX 4 3 1 6
BITMAP
50
a0
a0
ENDCHAR
STARTCHAR quotedblright
ENCODING 148
SWIDTH 833 0
DWIDTH 10 0
BBX 4 3 1 6
BITMAP
50
50
a0
ENDCHAR
STARTCHAR bullet
ENCODING 149
SWIDTH 833 0
DWIDTH 10 0
BBX 4 4 1 2
BITMAP
60
f0
f0
60
ENDCHAR
STARTCHAR endash
ENCODING 150
SWIDTH 833 0
DWIDTH 10 0
BBX 5 1 0 3
BITMAP
f8
ENDCHAR
STARTCHAR emdash
ENCODING 151
SWIDTH 833 0
DWIDTH 10 0
BBX 5 1 0 3
BITMAP
f8
ENDCHAR
STARTCHAR tilde
ENCODING 152
SWIDTH 833 0
DWIDTH 10 0
BBX 4 2 1 8
BITMAP
50
a0
ENDCHAR
STARTCHAR trademark
ENCODING 153
SWIDTH 833 0
DWIDTH 10 0
BBX 6 4 0 4
BITMAP
f4
5c
54
54
ENDCHAR
STARTCHAR scaron
ENCODING 154
SWIDTH 833 0
DWIDTH 10 0
BBX 5 8 0 0
BITMAP
50
20
78
80
70
08
08
f0
ENDCHAR
STARTCHAR guilsinglright
ENCODING 155
SWIDTH 833 0
DWIDTH 10 0
BBX 4 7 1 0
BITMAP
80
40
20
10
20
40
80
ENDCHAR
STARTCHAR oe
ENCODING 156
SWIDTH 833 0
DWIDTH 10 0
BBX 5 6 0 0
BITMAP
70
a8
a8
b0
a0
78
ENDCHAR
STARTCHAR C235
ENCODING 157
SWIDTH 833 0
DWIDTH 10 0
BBX 10 12 0 -2
BITMAP
3300
3300
3300
3300
ffc0
ffc0
ffc0
7f80
3f00
1e00
1e00
1e00
ENDCHAR
STARTCHAR zcaron
ENCODING 158
SWIDTH 833 0
DWIDTH 10 0
BBX 5 8 0 0
BITMAP
50
20
f8
10
20
40
80
f8
ENDCHAR
STARTCHAR Ydieresis
ENCODING 159
SWIDTH 833 0
DWIDTH 10 0
BBX 5 10 0 0
BITMAP
50
50
88
88
50
50
20
20
20
20
ENDCHAR
STARTCHAR nbspace
ENCODING 160
SWIDTH 833 0
DWIDTH 10 0
BBX 0 0 0 0
BITMAP
ENDCHAR
STARTCHAR exclamdown
ENCODING 161
SWIDTH 833 0
DWIDTH 10 0
BBX 1 8 2 0
BITMAP
80
80
00
80
80
80
80
80
ENDCHAR
STARTCHAR cent
ENCODING 162
SWIDTH 833 0
DWIDTH 10 0
BBX 5 8 0 -1
BITMAP
20
70
a8
a0
a0
a8
70
20
ENDCHAR
STARTCHAR sterling
ENCODING 163
SWIDTH 833 0
DWIDTH 10 0
BBX 5 8 0 0
BITMAP
30
48
40
f0
40
40
48
f8
ENDCHAR
STARTCHAR currency
ENCODING 164
SWIDTH 833 0
DWIDTH 10 0
BBX 4 6 1 1
BITMAP
90
60
90
90
60
90
ENDCHAR
STARTCHAR yen
ENCODING 165
SWIDTH 833 0
DWIDTH 10 0
BBX 5 8 0 0
BITMAP
88
88
50
20
70
20
70
20
ENDCHAR
STARTCHAR brokenbar
ENCODING 166
SWIDTH 833 0
DWIDTH 10 0
BBX 1 8 2 0
BITMAP
80
80
80
00
00
80
80
80
ENDCHAR
STARTCHAR section
ENCODING 167
SWIDTH 833 0
DWIDTH 10 0
BBX 4 9 1 0
BITMAP
60
90
40
a0
90
50
20
90
60
ENDCHAR
STARTCHAR dieresis
ENCODING 168
SWIDTH 833 0
DWIDTH 10 0
BBX 3 2 1 8
BITMAP
a0
a0
ENDCHAR
STARTCHAR copyright
ENCODING 169
SWIDTH 833 0
DWIDTH 10 0
BBX 6 8 0 0
BITMAP
78
84
b4
a4
a4
b4
84
78
ENDCHAR
STARTCHAR ordfeminine
ENCODING 170
SWIDTH 833 0
DWIDTH 10 0
BBX 4 7 1 3
BITMAP
60
10
70
90
70
00
f0
ENDCHAR
STARTCHAR guillemotleft
ENCODING 171
SWIDTH 833 0
DWIDTH 10 0
BBX 6 7 0 0
BITMAP
14
28
50
a0
50
28
14
ENDCHAR
STARTCHAR logicalnot
ENCODING 172
SWIDTH 833 0
DWIDTH 10 0
BBX 5 4 0 2
BITMAP
f8
08
08
08
ENDCHAR
STARTCHAR softhyphen
ENCODING 173
SWIDTH 833 0
DWIDTH 10 0
BBX 4 1 1 3
BITMAP
f0
ENDCHAR
STARTCHAR registered
ENCODING 174
SWIDTH 833 0
DWIDTH 10 0
BBX 6 8 0 0
BITMAP
78
84
b4
ac
b4
ac
84
78
ENDCHAR
STARTCHAR macron
ENCODING 175
SWIDTH 833 0
DWIDTH 10 0
BBX 3 1 1 9
BITMAP
e0
ENDCHAR
STARTCHAR degree
ENCODING 176
SWIDTH 833 0
DWIDTH 10 0
BBX 3 3 1 6
BITMAP
40
a0
40
ENDCHAR
STARTCHAR plusminus
ENCODING 177
SWIDTH 833 0
DWIDTH 10 0
BBX 8 8 1 0
BITMAP
ff
ff
ff
ff
ff
ff
ff
ff
ENDCHAR
STARTCHAR twosuperior
ENCODING 178
SWIDTH 833 0
DWIDTH 10 0
BBX 6 7 2 1
BITMAP
cc
cc
cc
cc
cc
cc
cc
ENDCHAR
STARTCHAR threesuperior
ENCODING 179
SWIDTH 833 0
DWIDTH 10 0
BBX 5 10 2 -1
BITMAP
80
c0
e0
f0
f8
f8
f0
e0
c0
80
ENDCHAR
STARTCHAR acute
ENCODING 180
SWIDTH 833 0
DWIDTH 10 0
BBX 2 2 2 8
BITMAP
40
80
ENDCHAR
STARTCHAR mu
ENCODING 181
SWIDTH 833 0
DWIDTH 10 0
BBX 5 8 0 -2
BITMAP
88
88
88
88
98
e8
80
80
ENDCHAR
STARTCHAR paragraph
ENCODING 182
SWIDTH 833 0
DWIDTH 10 0
BBX 5 8 0 0
BITMAP
78
a8
a8
a8
68
28
28
28
ENDCHAR
STARTCHAR periodcentered
ENCODING 183
SWIDTH 833 0
DWIDTH 10 0
BBX 1 2 2 3
BITMAP
80
80
ENDCHAR
STARTCHAR cedilla
ENCODING 184
SWIDTH 833 0
DWIDTH 10 0
BBX 2 3 1 -2
BITMAP
40
40
80
ENDCHAR
STARTCHAR onesuperior
ENCODING 185
SWIDTH 833 0
DWIDTH 10 0
BBX 2 4 1 5
BITMAP
40
c0
40
40
ENDCHAR
STARTCHAR ordmasculine
ENCODING 186
SWIDTH 833 0
DWIDTH 10 0
BBX 4 7 1 3
BITMAP
60
90
90
90
60
00
f0
ENDCHAR
STARTCHAR guillemotright
ENCODING 187
SWIDTH 833 0
DWIDTH 10 0
BBX 6 7 0 0
BITMAP
a0
50
28
14
28
50
a0
ENDCHAR
STARTCHAR onequarter
ENCODING 188
SWIDTH 833 0
DWIDTH 10 0
BBX 5 12 0 -2
BITMAP
40
c0
40
48
10
20
48
98
28
78
08
08
ENDCHAR
STARTCHAR onehalf
ENCODING 189
SWIDTH 833 0
DWIDTH 10 0
BBX 6 12 0 -2
BITMAP
40
c0
44
48
10
20
40
98
24
08
10
3c
ENDCHAR
STARTCHAR threequarters
ENCODING 190
SWIDTH 833 0
DWIDTH 10 0
BBX 6 12 0 -2
BITMAP
c0
20
c0
24
c8
10
24
4c
94
3c
04
04
ENDCHAR
STARTCHAR questiondown
ENCODING 191
SWIDTH 833 0
DWIDTH 10 0
BBX 5 8 0 0
BITMAP
20
20
00
20
40
88
88
70
ENDCHAR
STARTCHAR char340
ENCODING 192
SWIDTH 833 0
DWIDTH 10 0
BBX 8 8 1 0
BITMAP
3c
7e
ff
e7
e7
ff
7e
3c
ENDCHAR
STARTCHAR char256
ENCODING 193
SWIDTH 833 0
DWIDTH 10 0
BBX 8 8 1 0
BITMAP
60
ec
de
5e
ec
de
3f
3f
ENDCHAR
STARTCHAR char256
ENCODING 194
SWIDTH 833 0
DWIDTH 10 0
BBX 8 8 1 0
BITMAP
ff
ff
81
81
81
81
81
ff
ENDCHAR
STARTCHAR char256
ENCODING 195
SWIDTH 833 0
DWIDTH 10 0
BBX 8 8 1 0
BITMAP
ff
ff
81
bd
81
bd
81
ff
ENDCHAR
STARTCHAR char256
ENCODING 196
SWIDTH 833 0
DWIDTH 10 0
BBX 8 8 1 0
BITMAP
ff
ff
81
a5
81
bd
81
ff
ENDCHAR
STARTCHAR char252
ENCODING 197
SWIDTH 833 0
DWIDTH 10 0
BBX 6 8 2 0
BITMAP
f0
9c
f4
04
04
f4
9c
f0
ENDCHAR
STARTCHAR char304
ENCODING 198
SWIDTH 833 0
DWIDTH 10 0
BBX 8 8 1 0
BITMAP
18
3c
7e
ff
7e
66
66
66
ENDCHAR
STARTCHAR char316
ENCODING 199
SWIDTH 833 0
DWIDTH 10 0
BBX 9 10 0 -1
BITMAP
0800
0800
1c00
1c00
3e00
3e00
7700
6300
e380
8080
ENDCHAR
STARTCHAR AE
ENCODING 200
SWIDTH 833 0
DWIDTH 10 0
BBX 8 8 1 0
BITMAP
ff
81
81
81
81
ff
18
ff
ENDCHAR
STARTCHAR char256
ENCODING 201
SWIDTH 833 0
DWIDTH 10 0
BBX 8 8 1 0
BITMAP
f7
f7
f0
07
f7
f0
f7
f7
ENDCHAR
STARTCHAR char256
ENCODING 202
SWIDTH 833 0
DWIDTH 10 0
BBX 8 8 1 0
BITMAP
f8
f8
f8
fb
fb
03
1f
1f
ENDCHAR
STARTCHAR char256
ENCODING 203
SWIDTH 833 0
DWIDTH 10 0
BBX 8 8 1 0
BITMAP
ff
ff
ff
ff
ff
ff
ff
ff
ENDCHAR
STARTCHAR char256
ENCODING 204
SWIDTH 833 0
DWIDTH 10 0
BBX 8 8 1 0
BITMAP
ef
ef
ef
ef
00
db
db
db
ENDCHAR
STARTCHAR char256
ENCODING 205
SWIDTH 833 0
DWIDTH 10 0
BBX 8 8 1 0
BITMAP
db
db
00
db
db
00
db
db
ENDCHAR
STARTCHAR char144
ENCODING 206
SWIDTH 833 0
DWIDTH 10 0
BBX 8 8 1 0
BITMAP
3f
3f
21
21
21
21
e7
e7
ENDCHAR
STARTCHAR char319
ENCODING 207
SWIDTH 833 0
DWIDTH 10 0
BBX 8 8 1 0
BITMAP
db
81
3c
bd
bd
3c
81
db
ENDCHAR
STARTCHAR char308
ENCODING 208
SWIDTH 833 0
DWIDTH 10 0
BBX 7 8 1 0
BITMAP
38
38
38
38
fe
7c
38
10
ENDCHAR
STARTCHAR char308
ENCODING 209
SWIDTH 833 0
DWIDTH 10 0
BBX 7 8 1 0
BITMAP
10
38
7c
fe
38
38
38
38
ENDCHAR
STARTCHAR char256
ENCODING 210
SWIDTH 833 0
DWIDTH 10 0
BBX 8 8 1 0
BITMAP
7e
ff
ff
ff
ff
7e
0c
18
ENDCHAR
STARTCHAR char305
ENCODING 211
SWIDTH 833 0
DWIDTH 10 0
BBX 9 7 1 0
BITMAP
ff80
be80
dd80
eb80
d580
be80
ff80
ENDCHAR
STARTCHAR char278
ENCODING 212
SWIDTH 833 0
DWIDTH 10 0
BBX 8 8 1 0
BITMAP
10
32
f1
f5
f5
f1
32
10
ENDCHAR
STARTCHAR char340
ENCODING 213
SWIDTH 833 0
DWIDTH 10 0
BBX 8 8 1 0
BITMAP
3c
6e
ef
ef
e1
ff
7e
3c
ENDCHAR
STARTCHAR char293
ENCODING 214
SWIDTH 833 0
DWIDTH 10 0
BBX 3 3 1 2
BITMAP
e0
e0
e0
ENDCHAR
STARTCHAR multiply
ENCODING 215
SWIDTH 833 0
DWIDTH 10 0
BBX 5 5 0 1
BITMAP
88
50
20
50
88
ENDCHAR
STARTCHAR Oslash
ENCODING 216
SWIDTH 833 0
DWIDTH 10 0
BBX 7 8 1 0
BITMAP
7c
82
38
44
10
28
00
10
ENDCHAR
STARTCHAR Ugrave
ENCODING 217
SWIDTH 833 0
DWIDTH 10 0
BBX 8 8 1 0
BITMAP
ff
ff
18
18
ff
db
c3
ff
ENDCHAR
STARTCHAR uni2B80
ENCODING 218
SWIDTH 833 0
DWIDTH 10 0
BBX 6 12 0 -2
BITMAP
80
c0
e0
f0
f8
fc
fc
f8
f0
e0
c0
80
ENDCHAR
STARTCHAR uni2B81
ENCODING 219
SWIDTH 833 0
DWIDTH 10 0
BBX 6 12 1 -2
BITMAP
80
40
20
10
08
04
04
08
10
20
40
80
ENDCHAR
STARTCHAR uni2B82
ENCODING 220
SWIDTH 833 0
DWIDTH 10 0
BBX 6 12 4 -2
BITMAP
04
0c
1c
3c
7c
fc
fc
7c
3c
1c
0c
04
ENDCHAR
STARTCHAR uni2B83
ENCODING 221
SWIDTH 833 0
DWIDTH 10 0
BBX 6 12 1 -2
BITMAP
04
08
10
20
40
80
80
40
20
10
08
04
ENDCHAR
STARTCHAR char319
ENCODING 222
SWIDTH 833 0
DWIDTH 10 0
BBX 7 8 1 0
BITMAP
aa
00
fe
fe
fe
fe
00
aa
ENDCHAR
STARTCHAR germandbls
ENCODING 223
SWIDTH 833 0
DWIDTH 10 0
BBX 6 12 0 -2
BITMAP
fc
fc
fc
fc
fc
fc
fc
fc
fc
fc
fc
fc
ENDCHAR
STARTCHAR agrave
ENCODING 224
SWIDTH 833 0
DWIDTH 10 0
BBX 5 8 0 0
BITMAP
40
20
70
08
78
88
88
78
ENDCHAR
STARTCHAR aacute
ENCODING 225
SWIDTH 833 0
DWIDTH 10 0
BBX 5 8 0 0
BITMAP
10
20
70
08
78
88
88
78
ENDCHAR
STARTCHAR acircumflex
ENCODING 226
SWIDTH 833 0
DWIDTH 10 0
BBX 5 8 0 0
BITMAP
20
50
70
08
78
88
88
78
ENDCHAR
STARTCHAR atilde
ENCODING 227
SWIDTH 833 0
DWIDTH 10 0
BBX 5 8 0 0
BITMAP
28
50
70
08
78
88
88
78
ENDCHAR
STARTCHAR adieresis
ENCODING 228
SWIDTH 833 0
DWIDTH 10 0
BBX 5 8 0 0
BITMAP
50
50
70
08
78
88
88
78
ENDCHAR
STARTCHAR aring
ENCODING 229
SWIDTH 833 0
DWIDTH 10 0
BBX 5 8 0 0
BITMAP
20
50
70
08
78
88
88
78
ENDCHAR
STARTCHAR ae
ENCODING 230
SWIDTH 833 0
DWIDTH 10 0
BBX 5 6 0 0
BITMAP
70
28
68
b0
a0
78
ENDCHAR
STARTCHAR ccedilla
ENCODING 231
SWIDTH 833 0
DWIDTH 10 0
BBX 5 8 0 -2
BITMAP
70
88
80
80
88
70
20
40
ENDCHAR
STARTCHAR egrave
ENCODING 232
SWIDTH 833 0
DWIDTH 10 0
BBX 5 8 0 0
BITMAP
40
20
70
88
f8
80
88
70
ENDCHAR
STARTCHAR eacute
ENCODING 233
SWIDTH 833 0
DWIDTH 10 0
BBX 5 8 0 0
BITMAP
10
20
70
88
f8
80
88
70
ENDCHAR
STARTCHAR ecircumflex
ENCODING 234
SWIDTH 833 0
DWIDTH 10 0
BBX 5 8 0 0
BITMAP
20
50
70
88
f8
80
88
70
ENDCHAR
STARTCHAR edieresis
ENCODING 235
SWIDTH 833 0
DWIDTH 10 0
BBX 5 8 0 0
BITMAP
50
50
70
88
f8
80
88
70
ENDCHAR
STARTCHAR igrave
ENCODING 236
SWIDTH 833 0
DWIDTH 10 0
BBX 3 8 1 0
BITMAP
80
40
c0
40
40
40
40
e0
ENDCHAR
STARTCHAR iacute
ENCODING 237
SWIDTH 833 0
DWIDTH 10 0
BBX 3 8 1 0
BITMAP
20
40
c0
40
40
40
40
e0
ENDCHAR
STARTCHAR icircumflex
ENCODING 238
SWIDTH 833 0
DWIDTH 10 0
BBX 3 8 1 0
BITMAP
40
a0
c0
40
40
40
40
e0
ENDCHAR
STARTCHAR idieresis
ENCODING 239
SWIDTH 833 0
DWIDTH 10 0
BBX 3 8 1 0
BITMAP
a0
a0
c0
40
40
40
40
e0
ENDCHAR
STARTCHAR eth
ENCODING 240
SWIDTH 833 0
DWIDTH 10 0
BBX 5 9 0 0
BITMAP
a0
40
a0
70
88
88
88
88
70
ENDCHAR
STARTCHAR ntilde
ENCODING 241
SWIDTH 833 0
DWIDTH 10 0
BBX 5 8 0 0
BITMAP
28
50
f0
88
88
88
88
88
ENDCHAR
STARTCHAR ograve
ENCODING 242
SWIDTH 833 0
DWIDTH 10 0
BBX 5 8 0 0
BITMAP
40
20
70
88
88
88
88
70
ENDCHAR
STARTCHAR oacute
ENCODING 243
SWIDTH 833 0
DWIDTH 10 0
BBX 5 8 0 0
BITMAP
10
20
70
88
88
88
88
70
ENDCHAR
STARTCHAR ocircumflex
ENCODING 244
SWIDTH 833 0
DWIDTH 10 0
BBX 5 8 0 0
BITMAP
20
50
70
88
88
88
88
70
ENDCHAR
STARTCHAR otilde
ENCODING 245
SWIDTH 833 0
DWIDTH 10 0
BBX 5 8 0 0
BITMAP
28
50
70
88
88
88
88
70
ENDCHAR
STARTCHAR odieresis
ENCODING 246
SWIDTH 833 0
DWIDTH 10 0
BBX 5 8 0 0
BITMAP
50
50
70
88
88
88
88
70
ENDCHAR
STARTCHAR divide
ENCODING 247
SWIDTH 833 0
DWIDTH 10 0
BBX 5 7 0 0
BITMAP
20
20
00
f8
00
20
20
ENDCHAR
STARTCHAR oslash
ENCODING 248
SWIDTH 833 0
DWIDTH 10 0
BBX 6 6 0 0
BITMAP
34
48
58
68
48
b0
ENDCHAR
STARTCHAR ugrave
ENCODING 249
SWIDTH 833 0
DWIDTH 10 0
BBX 5 8 0 0
BITMAP
40
20
88
88
88
88
88
78
ENDCHAR
STARTCHAR uacute
ENCODING 250
SWIDTH 833 0
DWIDTH 10 0
BBX 5 8 0 0
BITMAP
10
20
88
88
88
88
88
78
ENDCHAR
STARTCHAR ucircumflex
ENCODING 251
SWIDTH 833 0
DWIDTH 10 0
BBX 5 8 0 0
BITMAP
20
50
88
88
88
88
88
78
ENDCHAR
STARTCHAR udieresis
ENCODING 252
SWIDTH 833 0
DWIDTH 10 0
BBX 5 8 0 0
BITMAP
50
50
88
88
88
88
88
78
ENDCHAR
STARTCHAR yacute
ENCODING 253
SWIDTH 833 0
DWIDTH 10 0
BBX 5 10 0 -2
BITMAP
10
20
88
88
88
88
88
78
08
70
ENDCHAR
STARTCHAR thorn
ENCODING 254
SWIDTH 833 0
DWIDTH 10 0
BBX 5 10 0 -2
BITMAP
80
80
f0
88
88
88
88
f0
80
80
ENDCHAR
STARTCHAR ydieresis
ENCODING 255
SWIDTH 833 0
DWIDTH 10 0
BBX 5 10 0 -2
BITMAP
50
50
88
88
88
88
88
78
08
70
ENDCHAR
ENDFONT
